<?xml version="1.0" encoding="UTF-8" standalone="no"?>
<svg
   xmlns:dc="http://purl.org/dc/elements/1.1/"
   xmlns:cc="http://creativecommons.org/ns#"
   xmlns:rdf="http://www.w3.org/1999/02/22-rdf-syntax-ns#"
   xmlns:svg="http://www.w3.org/2000/svg"
   xmlns="http://www.w3.org/2000/svg"
   xmlns:sodipodi="http://sodipodi.sourceforge.net/DTD/sodipodi-0.dtd"
   xmlns:inkscape="http://www.inkscape.org/namespaces/inkscape"
   viewBox="0 0 512 512"
   version="1.1"
   id="svg139"
   sodipodi:docname="paper.svg"
   inkscape:version="0.92.2 (5c3e80d, 2017-08-06)">
  <metadata
     id="metadata145">
    <rdf:RDF>
      <cc:Work
         rdf:about="">
        <dc:format>image/svg+xml</dc:format>
        <dc:type
           rdf:resource="http://purl.org/dc/dcmitype/StillImage" />
        <dc:title />
      </cc:Work>
    </rdf:RDF>
  </metadata>
  <defs
     id="defs143" />
  <sodipodi:namedview
     pagecolor="#ffffff"
     bordercolor="#666666"
     borderopacity="1"
     objecttolerance="10"
     gridtolerance="10"
     guidetolerance="10"
     inkscape:pageopacity="0"
     inkscape:pageshadow="2"
     inkscape:window-width="3066"
     inkscape:window-height="1689"
     id="namedview141"
     showgrid="false"
     inkscape:zoom="2.7988281"
     inkscape:cx="117.01326"
     inkscape:cy="256"
     inkscape:window-x="134"
     inkscape:window-y="55"
     inkscape:window-maximized="1"
     inkscape:current-layer="svg139" />
  <path
     d="m 48.722,223.055 c -0.03,1.074 0.303,1.851 0.388,2.084 18.648,21.283 38.917,30.3 60.545,50.481 21.526,20.088 42.16,50.875 59.652,112.58 l 49.06,36.2 c 2.65203,1.95649 4.22926,5.04651 4.258,8.342 0.2729,26.41931 0.524,52.83747 0.524,79.258 h 119.913 c 0,-27.90233 0,-55.80467 0,-83.707 2.9e-4,-3.12362 1.39392,-6.08429 3.801,-8.075 19.04,-15.751 37.31,-23.32 46.391,-44.188 l 72.057,-233.547 c -0.626,-14.53 -2.346,-26.134 -6.484,-33.333 -3.522,-6.133 -8.696,-10.355 -19.312,-12.754 -2.684,6.355 -11.58,27.4 -23.119,54.947 -6.581,15.715 -13.151,31.476 -18.042,43.361 -2.446,5.942 -4.474,10.925 -5.854,14.405 -0.52625,1.31283 -1.03762,2.63158 -1.534,3.956 -0.09,0.242 -0.105,0.294 -0.151,0.427 0.027,0.183 0.122,0.35 -0.789,2.21 -0.566,1.157 -12.327,5.463 -12.33,5.463 0,0 -7.018,-6.57 -7.259,-7.534 -0.74,-2.958 -0.29,-3.47 -0.21,-4.056 0.033,-0.233 0.059,-0.295 0.087,-0.452 0.018,-0.152 0.042,-0.343 0.085,-0.742 0.11,-1.036 0.275,-2.71 0.477,-4.871 0.402,-4.324 0.963,-10.632 1.627,-18.248 1.328,-15.234 3.066,-35.726 4.788,-56.326 1.72,-20.6 3.426,-41.31 4.693,-56.997 0.634,-7.841 1.156,-14.43 1.514,-19.104 0.18,-2.336 0.32,-4.2 0.41,-5.476 0.035,-0.518 0.058,-0.861 0.076,-1.164 -0.687,-9.263 -3.412,-14.086 -6.257,-16.746 -2.888,-2.696 -6.478,-3.812 -11.036,-3.58 -8.967,0.456 -19.447,7.982 -21.773,15.327 l -19.086,145.616 c -0.69464,5.29528 -5.26016,9.22121 -10.59975,9.11482 -5.33959,-0.1064 -9.74509,-4.21107 -10.22825,-9.52982 0,0 -3.626,-40.06 -7.394,-80.637 -1.887,-20.291 -3.808,-40.714 -5.328,-56.304 -0.761,-7.796 -1.42,-14.387 -1.924,-19.12 -0.19432,-1.864016 -0.40099,-3.726723 -0.62,-5.588 -0.073,-0.6 -0.227,-1.33 -0.315,-1.765 -3.604,-12.7 -8.35,-18.86 -11.708,-21.152 -3.428,-2.34 -5.925,-2.32 -10.065,-0.602 -8.268,3.43 -18.38,17.8 -19.007,27.098 l -4.265,163.448 c -0.13699,5.3299 -4.25379,9.70742 -9.56525,10.17103 -5.31146,0.46362 -10.12442,-3.13447 -11.18275,-8.36003 0,0 -7.214,-35.533 -14.605,-72.087 l -10.34,-51.284 c -2.907,-14.48 -4.873,-24.28 -5.377,-27.191 -1.913,-11.051 -6.143,-16.14 -10.671,-18.799 -4.528,-2.657 -10.341,-3.091 -16.507,-1.16 -10.791,3.38 -20.744,13.346 -21.039,26.984 -0.0393,2.031333 0.12523,4.061484 0.491,6.06 0.013,0.074 0.025,0.148 0.035,0.222 l 27.558,173.456 c 12.088,8.745 18.512,16.885 26.757,27.893 66.467,2.355 99.614,14.496 117.122,31.826 17.976,17.797 16.797,40.058 18.525,46.97 l -20.332,5.086 c -3.534,-14.13 -1.241,-25.582 -12.937,-37.159 -11.697,-11.579 -40.334,-24.205 -108.07,-26.012 -3.20328,-0.0865 -6.19095,-1.63374 -8.11,-4.2 -10.824,-14.469 -14.296,-20.043 -27.815,-29.197 L 66.984,203.623 c -9.31,1.239 -13.61,5.838 -16.179,11.226 -1.388,2.91 -2.026,6.052 -2.084,8.201 z"
     id="path137"
     inkscape:connector-curvature="0"
     style="fill:#b21e3e"
     sodipodi:nodetypes="ccccccccccccccccccccccccccccccccccccsccccccccccscccccccccccccccccccccc" />
</svg>
